PathFileType	4	(X/Y/Z)	/Users/itak/Documents/Research/Walk-IL/dataset/trc/00552_00009.trc
DataRate	CameraRate	NumFrames	NumMarkers	Units	OrigDataRate	OrigDataStartFrame	OrigNumFrames
100.000000	100.000000	4	53	mm	100.000000	207	554
Frame#	Time	RPSI			LPSI			L3			STRN			T10			C7			CLAV			RBAK			LBAK			LSHO			LUPA			LAEL			LAOL			LWTS			LWPS			LFRA			LIFD			LHPS			LHTS			RSHO			RUPA			RAEL			RAOL			RWTS			RWPS			RFRA			RIFD			RHTS			RHPS			RBHD			LFHD			RFHD			LBHD			LHIP			RHIP			RASI			LASI			LKNE			LTHI			LANK			LTIP			LTOE			LMT1			LMT5			LHEE			RKNE			RTHI			RANK			RTIP			RTOE			RMT1			RMT5			RHEE			
		X1	Y1	Z1	X2	Y2	Z2	X3	Y3	Z3	X4	Y4	Z4	X5	Y5	Z5	X6	Y6	Z6	X7	Y7	Z7	X8	Y8	Z8	X9	Y9	Z9	X10	Y10	Z10	X11	Y11	Z11	X12	Y12	Z12	X13	Y13	Z13	X14	Y14	Z14	X15	Y15	Z15	X16	Y16	Z16	X17	Y17	Z17	X18	Y18	Z18	X19	Y19	Z19	X20	Y20	Z20	X21	Y21	Z21	X22	Y22	Z22	X23	Y23	Z23	X24	Y24	Z24	X25	Y25	Z25	X26	Y26	Z26	X27	Y27	Z27	X28	Y28	Z28	X29	Y29	Z29	X30	Y30	Z30	X31	Y31	Z31	X32	Y32	Z32	X33	Y33	Z33	X34	Y34	Z34	X35	Y35	Z35	X36	Y36	Z36	X37	Y37	Z37	X38	Y38	Z38	X39	Y39	Z39	X40	Y40	Z40	X41	Y41	Z41	X42	Y42	Z42	X43	Y43	Z43	X44	Y44	Z44	X45	Y45	Z45	X46	Y46	Z46	X47	Y47	Z47	X48	Y48	Z48	X49	Y49	Z49	X50	Y50	Z50	X51	Y51	Z51	X52	Y52	Z52	X53	Y53	Z53	

208	2.07	-673.524169921875	985.292236328125	273.249267578125	-668.3659057617188	985.5282592773438	139.5560302734375	-669.702392578125	1086.234375	195.5811767578125	-426.4768981933594	1262.432495117188	198.1710357666016	-670.7702026367188	1210.919921875	189.0973052978516	-610.7568969726562	1482.012329101562	207.191650390625	-441.0335388183594	1374.462036132812	201.7721557617188	-691.24755859375	1358.91796875	284.8460083007812	-643.1185302734375	1432.837768554688	112.6664657592773	-540.0232543945312	1456.652587890625	37.20967483520508	-546.764892578125	1332.447265625	-46.69660949707031	-520.7047729492188	1111.205810546875	-69.81803131103516	-613.363525390625	1099.605346679688	-29.31168746948242	-416.4919738769531	877.5614013671875	-8.591002464294434	-450.4124755859375	850.5184326171875	-84.06718444824219	-491.9653015136719	1027.038940429688	-72.99324035644531	-402.4369201660156	707.5988159179688	-11.17647647857666	-437.3813171386719	791.7843017578125	-73.87560272216797	-391.3808288574219	802.10693359375	-24.68508720397949	-561.0128173828125	1436.2265625	363.4782104492188	-588.2258911132812	1370.4072265625	427.2854919433594	-621.1436157226562	1082.527465820312	465.2096862792969	-673.0936889648438	1070.955322265625	430.16162109375	-513.086669921875	845.0348510742188	442.7030334472656	-567.6456909179688	832.4747314453125	504.2646789550781	-617.752685546875	1026.434814453125	472.9271850585938	-529.265869140625	670.8583374023438	450.470703125	-503.9472961425781	749.1353149414062	459.0858764648438	-562.3833618164062	755.9497680664062	501.9674682617188	-520.688232421875	1660.2939453125	276.2984924316406	-365.4460754394531	1671.520751953125	138.5510406494141	-381.1556396484375	1672.598388671875	282.0320129394531	-495.8916015625	1656.758056640625	112.1048202514648	-544.3536376953125	904.3645629882812	9.18684196472168	-537.9556274414062	927.6238403320312	391.3083190917969	-458.1355285644531	959.4273071289062	328.907470703125	-465.9142150878906	929.5904541015625	54.3427848815918	-589.5420532226562	463.0732116699219	53.02355194091797	-557.2376708984375	629.2184448242188	27.63186264038086	-920.5155639648438	96.60036468505859	51.80043792724609	-780.4696655273438	285.0906066894531	45.43476867675781	-737.2516479492188	35.60564804077148	119.3744354248047	-798.3173828125	54.70463943481445	150.3155670166016	-815.6431884765625	39.24028396606445	46.4990234375	-975.5487060546875	143.2954254150391	102.6123962402344	-381.6564636230469	506.4418640136719	344.9562683105469	-462.5689392089844	784.5457153320312	392.3025512695312	-458.0962829589844	36.93303298950195	322.5602111816406	-369.0219421386719	358.3038330078125	329.6893005371094	-236.6250152587891	41.70322799682617	285.5277099609375	-299.9591369628906	42.89982604980469	242.9481048583984	-325.5825805664062	38.3768196105957	345.2308959960938	-509.506103515625	33.10747528076172	263.4285278320312	
209	2.08	-665.1050415039062	986.5072021484375	275.6384582519531	-660.2261962890625	986.3154296875	141.9444732666016	-661.091796875	1087.155883789062	197.9999542236328	-418.8750915527344	1264.050659179688	200.2708892822266	-662.7669067382812	1211.810668945312	191.6006469726562	-603.7846069335938	1483.033569335938	209.7997131347656	-433.7159118652344	1376.02294921875	203.9208984375	-683.7169189453125	1359.647094726562	287.5339050292969	-636.1344604492188	1433.853393554688	115.3313217163086	-533.2689208984375	1458.154541015625	39.66178512573242	-540.4948120117188	1334.120849609375	-44.36025619506836	-515.561279296875	1112.781005859375	-67.81111145019531	-608.0694580078125	1101.659301757812	-26.85916519165039	-412.4527587890625	878.41650390625	-7.458633899688721	-446.8221130371094	851.6695556640625	-82.76397705078125	-487.3350830078125	1028.49267578125	-71.32639312744141	-399.5124816894531	708.3805541992188	-10.2432689666748	-434.2554321289062	792.9016723632812	-72.76966857910156	-387.902099609375	802.8429565429688	-23.78271675109863	-553.67138671875	1437.342407226562	365.88671875	-580.5971069335938	1371.4970703125	429.7712097167969	-612.54248046875	1083.48974609375	467.7457885742188	-664.873779296875	1071.683959960938	433.153076171875	-503.045166015625	846.7217407226562	444.7950439453125	-557.4110107421875	833.6987915039062	506.4105529785156	-608.7750244140625	1027.415405273438	475.3567504882812	-517.9520263671875	672.4506225585938	452.3238525390625	-493.2667541503906	750.8319091796875	461.3682250976562	-551.6187744140625	757.2261962890625	503.9827880859375	-513.8674926757812	1661.646484375	278.8970031738281	-358.824462890625	1673.075927734375	140.9286804199219	-374.2425537109375	1673.971313476562	284.4032287597656	-489.3421936035156	1658.365600585938	114.7141494750977	-535.8517456054688	905.232666015625	11.70552825927734	-529.591064453125	928.91748046875	394.2003173828125	-449.7782287597656	960.6062622070312	331.4608154296875	-457.6963195800781	930.849365234375	56.92472076416016	-573.9867553710938	462.4456787109375	52.76134872436523	-544.364501953125	629.50146484375	28.58446311950684	-914.9519653320312	104.5119476318359	51.17631149291992	-769.04150390625	288.9988403320312	45.2310791015625	-736.6605834960938	35.12975311279297	119.3161392211914	-796.0184326171875	56.44161605834961	150.1007843017578	-813.274169921875	41.42842102050781	46.29116821289062	-967.23291015625	153.8337249755859	101.9766540527344	-378.1448059082031	505.7334289550781	346.0839233398438	-455.6130981445312	784.8137817382812	394.3299865722656	-458.125732421875	36.90426254272461	322.6660461425781	-366.8554077148438	357.5790100097656	330.4586486816406	-236.6095123291016	41.57365417480469	285.4837036132812	-299.9371948242188	42.86200332641602	242.9182739257812	-325.5653686523438	38.34669876098633	345.2959594726562	-509.4913635253906	33.03023147583008	263.3946228027344	
210	2.09	-656.843017578125	987.81298828125	277.9873352050781	-652.25146484375	987.1853637695312	144.2902374267578	-652.5603637695312	1088.138916015625	200.4029083251953	-411.3143005371094	1265.6640625	202.2634887695312	-654.803955078125	1212.761352539062	194.1110992431641	-596.7744750976562	1484.08251953125	212.3853149414062	-426.3969421386719	1377.578247070312	205.9575958251953	-676.1358032226562	1360.441284179688	290.2518310546875	-629.1716918945312	1434.9072265625	117.9908142089844	-526.5740966796875	1459.693603515625	42.06264114379883	-534.3425903320312	1335.82275390625	-42.07167816162109	-510.4816284179688	1114.414794921875	-65.82682800292969	-602.8389282226562	1103.751953125	-24.46242904663086	-408.4660949707031	879.3297119140625	-6.372199535369873	-443.3006896972656	852.873291015625	-81.5289306640625	-482.7602233886719	1030.008056640625	-69.69187164306641	-396.7425842285156	709.2140502929688	-9.362956047058105	-431.1778259277344	794.0894775390625	-71.71140289306641	-384.5398559570312	803.6088256835938	-22.9112434387207	-546.2178955078125	1438.477783203125	368.2517395019531	-572.8314819335938	1372.62890625	432.22607421875	-603.8079223632812	1084.518798828125	470.3119201660156	-656.6001586914062	1072.4609375	436.26513671875	-492.8281555175781	848.5306396484375	446.8966674804688	-546.9515991210938	835.0214233398438	508.5949096679688	-599.6561889648438	1028.484252929688	477.8475341796875	-506.3478393554688	674.1657104492188	454.2208862304688	-482.3164367675781	752.6635131835938	463.6202087402344	-540.5966186523438	758.6124267578125	506.0594787597656	-507.0349426269531	1662.962280273438	281.4658813476562	-352.2023315429688	1674.673217773438	143.2777404785156	-367.3176574707031	1675.347900390625	286.7327880859375	-482.7855834960938	1659.983520507812	117.2910461425781	-527.568115234375	906.177978515625	14.19295692443848	-521.4556884765625	930.2495727539062	397.0594177246094	-441.6075134277344	961.7474365234375	334.0174560546875	-449.6081848144531	932.1301879882812	59.48188018798828	-557.9341430664062	461.8958129882812	52.39543914794922	-531.2749633789062	629.8563232421875	29.41111183166504	-908.5161743164062	112.9965209960938	50.61103057861328	-756.818359375	293.002685546875	45.01692199707031	-735.663818359375	34.47233963012695	119.2472457885742	-793.2161865234375	58.55216598510742	149.8683776855469	-810.47607421875	44.24588012695312	46.03544235229492	-957.9773559570312	164.8266906738281	101.327766418457	-374.9447937011719	505.07275390625	347.1717834472656	-448.912841796875	785.109130859375	396.3145141601562	-458.1707763671875	36.84896850585938	322.7691955566406	-364.9529724121094	356.912353515625	331.2180786132812	-236.6345367431641	41.53530502319336	285.4472351074219	-299.961181640625	42.85795974731445	242.9068450927734	-325.5856018066406	38.31063842773438	345.3623962402344	-509.5822143554688	32.99123764038086	263.4458923339844	
211	2.1	-648.7588500976562	989.1658325195312	280.2848205566406	-644.461669921875	988.1038818359375	146.5835571289062	-644.1478271484375	1089.15478515625	202.7748107910156	-403.7998352050781	1267.229736328125	204.1464538574219	-646.9124145507812	1213.749755859375	196.6163177490234	-589.7230224609375	1485.141479492188	214.938720703125	-419.0853271484375	1379.090209960938	207.8805236816406	-668.51171875	1361.283325195312	292.9883728027344	-622.2321166992188	1435.981567382812	120.634765625	-519.9320678710938	1461.233520507812	44.40498352050781	-528.300048828125	1337.515869140625	-39.83984756469727	-505.4808349609375	1116.06787109375	-63.89211273193359	-597.6800537109375	1105.840087890625	-22.12047576904297	-404.5088500976562	880.2686767578125	-5.340885639190674	-439.8661193847656	854.091552734375	-80.38165283203125	-478.2477722167969	1031.540893554688	-68.10245513916016	-394.0973815917969	710.0677490234375	-8.532846450805664	-428.1278381347656	795.3076782226562	-70.70005798339844	-381.2522888183594	804.3798217773438	-22.08024215698242	-538.6505126953125	1439.60791015625	370.5679931640625	-564.9259033203125	1373.775268554688	434.6435546875	-594.941650390625	1085.592041015625	472.9062805175781	-648.2252807617188	1073.26025390625	439.4624938964844	-482.4555053710938	850.4262084960938	449.0004577636719	-536.2766723632812	836.4142456054688	510.8106994628906	-590.387939453125	1029.618896484375	480.4091186523438	-494.49072265625	675.969482421875	456.1703491210938	-471.10498046875	754.6099853515625	465.8325500488281	-529.3320922851562	760.0797119140625	508.1960144042969	-500.1857299804688	1664.2041015625	283.9975891113281	-345.5749206542969	1676.288208007812	145.5909271240234	-360.3824157714844	1676.701538085938	289.0139770507812	-476.205322265625	1661.572998046875	119.8171844482422	-519.5166015625	907.1679077148438	16.64013290405273	-513.5869750976562	931.5355834960938	399.7987365722656	-433.6278686523438	962.826171875	336.5552368164062	-441.6593933105469	933.4099731445312	61.99449157714844	-541.45068359375	461.4480895996094	51.99731826782227	-518.0352172851562	630.2900390625	30.15587615966797	-901.1650390625	121.9787521362305	50.11053085327148	-743.8104248046875	297.0600891113281	44.82566070556641	-734.073974609375	33.65260696411133	119.1346588134766	-789.7589721679688	61.12234497070312	149.6147613525391	-807.1294555664062	47.76906204223633	45.75150680541992	-947.8054809570312	176.1538391113281	100.6701812744141	-371.9983520507812	504.4522399902344	348.1961669921875	-442.4427185058594	785.4003295898438	398.2351684570312	-458.2268371582031	36.77841949462891	322.8665161132812	-363.2523193359375	356.2968139648438	331.9413146972656	-236.6863098144531	41.54559707641602	285.4151000976562	-300.0124816894531	42.86637496948242	242.9046478271484	-325.628173828125	38.2701416015625	345.4259643554688	-509.759765625	32.99193954467773	263.5731811523438	
